<svg width="157" height="28" viewBox="0 0 157 28" fill="none" xmlns="http://www.w3.org/2000/svg">
<path d="M0.585938 1.23047H10.8867C12.9258 1.23047 14.4434 1.31836 15.4395 1.49414C16.4473 1.6582 17.3438 2.00977 18.1289 2.54883C18.9258 3.08789 19.5879 3.80859 20.1152 4.71094C20.6426 5.60156 20.9062 6.60352 20.9062 7.7168C20.9062 8.92383 20.5781 10.0312 19.9219 11.0391C19.2773 12.0469 18.3984 12.8027 17.2852 13.3066C18.8555 13.7637 20.0625 14.543 20.9062 15.6445C21.75 16.7461 22.1719 18.041 22.1719 19.5293C22.1719 20.7012 21.8965 21.8438 21.3457 22.957C20.8066 24.0586 20.0625 24.9434 19.1133 25.6113C18.1758 26.2676 17.0156 26.6719 15.6328 26.8242C14.7656 26.918 12.6738 26.9766 9.35742 27H0.585938V1.23047ZM5.78906 5.51953V11.4785H9.19922C11.2266 11.4785 12.4863 11.4492 12.9785 11.3906C13.8691 11.2852 14.5664 10.9805 15.0703 10.4766C15.5859 9.96094 15.8438 9.28711 15.8438 8.45508C15.8438 7.6582 15.6211 7.01367 15.1758 6.52148C14.7422 6.01758 14.0918 5.71289 13.2246 5.60742C12.709 5.54883 11.2266 5.51953 8.77734 5.51953H5.78906ZM5.78906 15.7676V22.6582H10.6055C12.4805 22.6582 13.6699 22.6055 14.1738 22.5C14.9473 22.3594 15.5742 22.0195 16.0547 21.4805C16.5469 20.9297 16.793 20.1973 16.793 19.2832C16.793 18.5098 16.6055 17.8535 16.2305 17.3145C15.8555 16.7754 15.3105 16.3828 14.5957 16.1367C13.8926 15.8906 12.3574 15.7676 9.99023 15.7676H5.78906ZM26.6016 27V1.23047H37.5527C40.3066 1.23047 42.3047 1.46484 43.5469 1.93359C44.8008 2.39062 45.8027 3.21094 46.5527 4.39453C47.3027 5.57812 47.6777 6.93164 47.6777 8.45508C47.6777 10.3887 47.1094 11.9883 45.9727 13.2539C44.8359 14.5078 43.1367 15.2988 40.875 15.627C42 16.2832 42.9258 17.0039 43.6523 17.7891C44.3906 18.5742 45.3809 19.9688 46.623 21.9727L49.7695 27H43.5469L39.7852 21.3926C38.4492 19.3887 37.5352 18.1289 37.043 17.6133C36.5508 17.0859 36.0293 16.7285 35.4785 16.541C34.9277 16.3418 34.0547 16.2422 32.8594 16.2422H31.8047V27H26.6016ZM31.8047 12.1289H35.6543C38.1504 12.1289 39.709 12.0234 40.3301 11.8125C40.9512 11.6016 41.4375 11.2383 41.7891 10.7227C42.1406 10.207 42.3164 9.5625 42.3164 8.78906C42.3164 7.92188 42.082 7.22461 41.6133 6.69727C41.1562 6.1582 40.5059 5.81836 39.6621 5.67773C39.2402 5.61914 37.9746 5.58984 35.8652 5.58984H31.8047V12.1289ZM51.5449 14.2734C51.5449 11.6484 51.9375 9.44531 52.7227 7.66406C53.3086 6.35156 54.1055 5.17383 55.1133 4.13086C56.1328 3.08789 57.2461 2.31445 58.4531 1.81055C60.0586 1.13086 61.9102 0.791016 64.0078 0.791016C67.8047 0.791016 70.8398 1.96875 73.1133 4.32422C75.3984 6.67969 76.541 9.95508 76.541 14.1504C76.541 18.3105 75.4102 21.5684 73.1484 23.9238C70.8867 26.2676 67.8633 27.4395 64.0781 27.4395C60.2461 27.4395 57.1992 26.2734 54.9375 23.9414C52.6758 21.5977 51.5449 18.375 51.5449 14.2734ZM56.9062 14.0977C56.9062 17.0156 57.5801 19.2305 58.9277 20.7422C60.2754 22.2422 61.9863 22.9922 64.0605 22.9922C66.1348 22.9922 67.834 22.248 69.1582 20.7598C70.4941 19.2598 71.1621 17.0156 71.1621 14.0273C71.1621 11.0742 70.5117 8.87109 69.2109 7.41797C67.9219 5.96484 66.2051 5.23828 64.0605 5.23828C61.916 5.23828 60.1875 5.97656 58.875 7.45312C57.5625 8.91797 56.9062 11.1328 56.9062 14.0977ZM80.6016 1.23047H90.1113C92.2559 1.23047 93.8906 1.39453 95.0156 1.72266C96.5273 2.16797 97.8223 2.95898 98.9004 4.0957C99.9785 5.23242 100.799 6.62695 101.361 8.2793C101.924 9.91992 102.205 11.9473 102.205 14.3613C102.205 16.4824 101.941 18.3105 101.414 19.8457C100.77 21.7207 99.8496 23.2383 98.6543 24.3984C97.752 25.2773 96.5332 25.9629 94.998 26.4551C93.8496 26.8184 92.3145 27 90.3926 27H80.6016V1.23047ZM85.8047 5.58984V22.6582H89.6895C91.1426 22.6582 92.1914 22.5762 92.8359 22.4121C93.6797 22.2012 94.377 21.8438 94.9277 21.3398C95.4902 20.8359 95.9473 20.0098 96.2988 18.8613C96.6504 17.7012 96.8262 16.125 96.8262 14.1328C96.8262 12.1406 96.6504 10.6113 96.2988 9.54492C95.9473 8.47852 95.4551 7.64648 94.8223 7.04883C94.1895 6.45117 93.3867 6.04688 92.4141 5.83594C91.6875 5.67188 90.2637 5.58984 88.1426 5.58984H85.8047ZM129.873 27H124.213L121.963 21.1465H111.662L109.535 27H104.016L114.053 1.23047H119.555L129.873 27ZM120.293 16.8047L116.742 7.24219L113.262 16.8047H120.293ZM131.596 14.2734C131.596 11.6484 131.988 9.44531 132.773 7.66406C133.359 6.35156 134.156 5.17383 135.164 4.13086C136.184 3.08789 137.297 2.31445 138.504 1.81055C140.109 1.13086 141.961 0.791016 144.059 0.791016C147.855 0.791016 150.891 1.96875 153.164 4.32422C155.449 6.67969 156.592 9.95508 156.592 14.1504C156.592 18.3105 155.461 21.5684 153.199 23.9238C150.938 26.2676 147.914 27.4395 144.129 27.4395C140.297 27.4395 137.25 26.2734 134.988 23.9414C132.727 21.5977 131.596 18.375 131.596 14.2734ZM136.957 14.0977C136.957 17.0156 137.631 19.2305 138.979 20.7422C140.326 22.2422 142.037 22.9922 144.111 22.9922C146.186 22.9922 147.885 22.248 149.209 20.7598C150.545 19.2598 151.213 17.0156 151.213 14.0273C151.213 11.0742 150.562 8.87109 149.262 7.41797C147.973 5.96484 146.256 5.23828 144.111 5.23828C141.967 5.23828 140.238 5.97656 138.926 7.45312C137.613 8.91797 136.957 11.1328 136.957 14.0977Z" fill="white"/>
</svg>
